<svg width="8" height="8" viewBox="0 0 8 8" fill="none" xmlns="http://www.w3.org/2000/svg">
<path fill-rule="evenodd" clip-rule="evenodd" d="M4 0C1.79075 0 0 1.79075 0 4C0 6.209 1.79075 8 4 8C6.209 8 8 6.20925 8 4C8 1.79075 6.209 0 4 0ZM4 7.5C2.067 7.5 0.5 5.933 0.5 4C0.5 2.067 2.067 0.5 4 0.5C5.933 0.5 7.5 2.067 7.5 4C7.5 5.933 5.933 7.5 4 7.5Z" fill="#EDEDED"/>
<path fill-rule="evenodd" clip-rule="evenodd" d="M5.68226 5.31775L4.36526 4.0005L5.67476 2.70175C5.77351 2.604 5.77351 2.44575 5.67476 2.34825C5.57626 2.25075 5.41626 2.25075 5.31776 2.34825L4.01001 3.64525L2.68276 2.31775C2.58426 2.21875 2.42426 2.21875 2.32576 2.31775C2.22726 2.4165 2.22726 2.577 2.32576 2.67575L3.65101 4.00125L2.31826 5.323C2.21976 5.42075 2.21976 5.579 2.31826 5.6765C2.41676 5.77425 2.57676 5.77425 2.67551 5.6765L4.00651 4.3565L5.32551 5.6755C5.42401 5.7745 5.58401 5.7745 5.68251 5.6755C5.78076 5.577 5.78076 5.41675 5.68226 5.31775Z" fill="#EDEDED"/>
</svg>
