<svg width="22" height="22" viewBox="0 0 16 16" fill="none" xmlns="http://www.w3.org/2000/svg">
<path d="M3.33332 14.6666C3.15651 14.6666 2.98694 14.5964 2.86192 14.4714C2.73689 14.3464 2.66666 14.1768 2.66666 14V1.99998C2.66666 1.82317 2.73689 1.6536 2.86192 1.52858C2.98694 1.40355 3.15651 1.33331 3.33332 1.33331H12.6667C12.8435 1.33331 13.013 1.40355 13.1381 1.52858C13.2631 1.6536 13.3333 1.82317 13.3333 1.99998V3.99998H12V2.66665H3.99999V13.3333H12V12H13.3333V14C13.3333 14.1768 13.2631 14.3464 13.1381 14.4714C13.013 14.5964 12.8435 14.6666 12.6667 14.6666H3.33332ZM12 10.6666V8.66665H7.33332V7.33331H12V5.33331L15.3333 7.99998L12 10.6666Z" fill="#EDEDED"/>
</svg>
