<svg width="28" height="28" viewBox="0 0 28 28" fill="none" xmlns="http://www.w3.org/2000/svg">
<g clip-path="url(#clip0)">
<path d="M17.2928 6.43213H17.3255C17.3255 6.43213 17.3 6.36812 17.2928 6.43213Z" fill="#FDE6A6"/>
<path d="M9.39246 6.43213H9.42518C9.41791 6.36812 9.39246 6.43213 9.39246 6.43213Z" fill="#FDDD88"/>
<path d="M25.1834 8.44636C24.9998 8.15328 24.7132 7.94922 24.3762 7.87182L22.6012 7.46399L23.4207 7.23459C24.0997 7.04453 24.5089 6.31926 24.3185 5.63895C24.1284 4.95991 23.4032 4.55086 22.7228 4.74115L18.9015 5.81067C18.802 5.62964 18.6605 5.47473 18.4901 5.35943C19.2656 3.91617 20.3829 1.46696 20.3829 0.413303C20.3829 0.156307 20.14 -0.0425141 19.888 0.00827921C18.3714 0.314637 16.9575 0.455999 15.5671 0.440849C14.1378 0.425148 12.3591 0.247647 11.2415 0.00921575C10.896 -0.0644952 10.6187 0.322129 10.801 0.625897C11.0733 1.07979 11.2402 1.55973 11.3319 2.04343C9.92922 2.0864 8.47456 1.91644 7.37358 1.36593C7.07703 1.21762 6.72693 1.4771 6.78119 1.8034C7.12749 3.8808 7.82604 5.09879 8.52646 6.01902H8.51092C7.79706 6.01902 7.2163 6.59979 7.2163 7.31365C7.2163 7.97016 7.70765 8.51373 8.34185 8.59687C7.87958 9.37111 7.21938 10.1057 6.52574 10.8766C5.05064 12.5159 3.3787 14.374 2.81617 17.3741C2.547 18.8096 2.55598 20.1527 2.84289 21.3664C3.11074 22.4994 3.62093 23.5249 4.35915 24.4145C5.33909 25.5953 6.68545 26.5115 8.36074 27.1377C9.86983 27.7019 11.5981 28 13.3589 28C15.1196 28 16.8479 27.7019 18.357 27.1377C20.0323 26.5115 21.3786 25.5952 22.3586 24.4145C23.0968 23.5249 23.607 22.4994 23.8748 21.3664C24.1618 20.1527 24.1707 18.8095 23.9016 17.3741C23.339 14.374 21.6672 12.516 20.1921 10.8767C19.6913 10.3201 19.2149 9.78946 18.8154 9.2509L23.7963 10.3953C24.3239 10.5165 24.8863 10.2857 25.1777 9.82973C25.4446 9.41231 25.4461 8.86571 25.1834 8.44636ZM22.9455 5.53693C23.1915 5.46795 23.454 5.61615 23.5227 5.86168C23.5915 6.10772 23.4436 6.37011 23.198 6.43881L20.9779 7.06018C20.9597 7.06524 20.9425 7.0718 20.9257 7.07907L19.0608 6.65058V6.62419L22.9455 5.53693ZM17.7662 5.96388C18.0244 5.96388 18.2344 6.17394 18.2344 6.43215V8.19504C18.2344 8.45325 18.0244 8.66331 17.7662 8.66331C17.5079 8.66331 17.2979 8.45325 17.2979 8.19504V6.43215C17.2979 6.17394 17.5079 5.96388 17.7662 5.96388ZM11.881 0.964207C12.9912 1.13603 14.3896 1.25431 15.558 1.26715C16.8302 1.28103 18.1178 1.1698 19.4778 0.927407C19.2284 1.94696 18.4276 3.76026 17.6681 5.14165C17.1417 5.18132 16.7024 5.53687 16.5395 6.01902H15.3924C15.3665 5.96316 15.3377 5.90201 15.3058 5.83403C14.951 5.08001 14.2128 3.51098 14.2128 2.17619C14.2128 1.91958 13.9705 1.72065 13.7186 1.77106C13.2378 1.86725 12.7088 1.94509 12.1584 1.99385C12.1007 1.64909 12.0112 1.30378 11.881 0.964207ZM10.8594 6.01897H9.581C9.57174 6.00448 9.56182 5.99027 9.55059 5.97671C8.85948 5.14534 8.15823 4.18363 7.74439 2.41215C8.77734 2.76473 10.048 2.92107 11.4203 2.87281L12.2392 2.82108C12.6255 2.78566 13.0174 2.73465 13.4121 2.66782C13.541 3.94608 14.125 5.25955 14.4797 6.01897H11.7286H10.8594ZM23.0895 17.5264C23.5678 20.0776 23.108 22.2176 21.7227 23.8867C20.0146 25.9449 16.8879 27.1737 13.3589 27.1737C9.82995 27.1737 6.7033 25.9449 4.99516 23.8867C3.60986 22.2176 3.15008 20.0776 3.62837 17.5264C4.1482 14.7543 5.73767 12.9878 7.14005 11.4293C7.97858 10.4974 8.77078 9.61598 9.27849 8.60821H10.2876C10.5158 8.60821 10.7008 8.42322 10.7008 8.19504C10.7008 7.96685 10.5158 7.78186 10.2876 7.78186H8.51092C8.25271 7.78186 8.04265 7.5718 8.04265 7.31359C8.04265 7.05538 8.25271 6.84532 8.51092 6.84532H16.4715V7.78186H12.2571C12.0288 7.78186 11.8439 7.96685 11.8439 8.19504C11.8439 8.42322 12.0288 8.60821 12.2571 8.60821H16.5395C16.7123 9.12 17.1967 9.48966 17.7661 9.48966C17.8319 9.48966 17.8964 9.48465 17.9596 9.47517C18.4207 10.1422 18.9828 10.7682 19.5778 11.4294C20.9802 12.9879 22.5696 14.7543 23.0895 17.5264ZM24.5426 9.23839C24.4848 9.49005 24.2334 9.64783 23.9813 9.58992L19.0348 8.45341C19.0517 8.36989 19.0607 8.28351 19.0607 8.19504V7.49842L24.191 8.67713C24.4397 8.73426 24.5998 8.9895 24.5426 9.23839Z" fill="black"/>
<path d="M14.4332 12.2169V11.5004C14.4332 10.9081 13.9512 10.4262 13.3589 10.4262C12.7666 10.4262 12.2847 10.9081 12.2847 11.5004V12.2716C10.7536 12.6131 9.64032 13.9742 9.64032 15.5771C9.64032 17.4453 11.1602 18.9652 13.0284 18.9652H13.6895C14.3729 18.9652 14.929 19.5212 14.929 20.2047C14.929 20.8882 14.3729 21.4443 13.6895 21.4443H12.6978C12.1966 21.4443 11.7888 21.0365 11.7888 20.5353C11.7888 19.9429 11.3069 19.461 10.7146 19.461C10.1223 19.461 9.64032 19.9429 9.64032 20.5353C9.64032 22.0812 10.7934 23.3627 12.2847 23.565V24.2814C12.2847 24.8737 12.7666 25.3557 13.3589 25.3557C13.9512 25.3557 14.4332 24.8737 14.4332 24.2814V23.5102C15.9642 23.1687 17.0775 21.8076 17.0775 20.2047C17.0775 18.3366 15.5576 16.8167 13.6895 16.8167H13.0284C12.3449 16.8167 11.7888 16.2606 11.7888 15.5771C11.7888 14.8936 12.3449 14.3376 13.0284 14.3376H14.02C14.5213 14.3376 14.929 14.7454 14.929 15.2466V15.9077C14.929 16.5 15.4109 16.9819 16.0033 16.9819C16.5956 16.9819 17.0775 16.5 17.0775 15.9077V15.2466C17.0775 13.7007 15.9245 12.4191 14.4332 12.2169ZM16.2512 15.9077C16.2512 16.0444 16.1399 16.1556 16.0033 16.1556C15.8666 16.1556 15.7553 16.0444 15.7553 15.9077V15.2466C15.7553 14.2897 14.9769 13.5112 14.02 13.5112H13.0284C11.8892 13.5112 10.9625 14.438 10.9625 15.5771C10.9625 16.7163 11.8892 17.643 13.0284 17.643H13.6895C15.102 17.643 16.2512 18.7922 16.2512 20.2047C16.2512 21.5117 15.2723 22.6059 13.9744 22.7502C13.7652 22.7734 13.6068 22.9503 13.6068 23.1608V24.2814C13.6068 24.4181 13.4956 24.5293 13.3589 24.5293C13.2222 24.5293 13.111 24.4181 13.111 24.2814V23.1796C13.111 22.9514 12.9261 22.7664 12.6978 22.7664C11.4676 22.7664 10.4667 21.7655 10.4667 20.5353C10.4667 20.3986 10.5779 20.2874 10.7146 20.2874C10.8513 20.2874 10.9625 20.3986 10.9625 20.5353C10.9625 21.4921 11.741 22.2706 12.6978 22.2706H13.6895C14.8286 22.2706 15.7553 21.3439 15.7553 20.2047C15.7553 19.0656 14.8286 18.1388 13.6895 18.1388H13.0284C11.6158 18.1388 10.4667 16.9896 10.4667 15.5771C10.4667 14.2702 11.4455 13.1759 12.7434 13.0317C12.9527 13.0084 13.111 12.8316 13.111 12.621V11.5004C13.111 11.3638 13.2222 11.2525 13.3589 11.2525C13.4956 11.2525 13.6068 11.3638 13.6068 11.5004V12.6023C13.6068 12.8304 13.7918 13.0154 14.02 13.0154C15.2503 13.0154 16.2512 14.0163 16.2512 15.2466V15.9077Z" fill="black"/>
</g>
<defs>
<clipPath id="clip0">
<rect width="28" height="28" fill="white"/>
</clipPath>
</defs>
</svg>
