<svg width="20" height="22" viewBox="0 0 14 16" fill="none" xmlns="http://www.w3.org/2000/svg">
<path d="M12.4 12.5H1.59999C1.19999 12.5 0.849994 12.3 0.649994 11.95C0.449994 11.6 0.499994 11.2 0.699994 10.85L1.24999 10C2.14999 8.65 2.59999 7.1 2.59999 5.5C2.59999 3.65 3.79999 1.95 5.54999 1.35C5.84999 0.8 6.39999 0.5 6.99999 0.5C7.59999 0.5 8.14999 0.8 8.44999 1.35C10.2 1.95 11.4 3.65 11.4 5.5C11.4 7.1 11.85 8.65 12.75 10L13.3 10.85C13.5 11.2 13.55 11.6 13.35 11.95C13.2 12.3 12.8 12.5 12.4 12.5Z" fill="#EDEDED"/>
<path d="M4.54999 13.5C4.79999 14.65 5.79999 15.5 6.99999 15.5C8.19999 15.5 9.19999 14.65 9.44999 13.5H4.54999Z" fill="#EDEDED"/>
</svg>
