<svg width="24" height="24" viewBox="0 0 16 16" fill="none" xmlns="http://www.w3.org/2000/svg">
<path d="M8.00001 0.320007C3.76545 0.320007 0.320007 3.76545 0.320007 8.00001C0.320007 10.2691 1.31009 12.311 2.88001 13.7181V13.7235L2.99137 13.8195C3.01089 13.8365 3.03233 13.8506 3.05217 13.8672C3.19009 13.9837 3.33217 14.0954 3.47809 14.2022C3.51745 14.231 3.55681 14.2589 3.59681 14.2867C3.75169 14.3955 3.91009 14.4992 4.07265 14.5965C4.09985 14.6128 4.12769 14.6282 4.15489 14.6438C4.33313 14.7475 4.51521 14.8451 4.70209 14.9344C4.70401 14.9354 4.70593 14.936 4.70785 14.937C5.10753 15.1274 5.52673 15.2832 5.96065 15.4029C5.96865 15.4051 5.97665 15.4077 5.98465 15.4096C6.18977 15.4656 6.39841 15.5126 6.60993 15.5514C6.62977 15.5549 6.64929 15.5584 6.66913 15.5619C6.87329 15.5978 7.08001 15.6262 7.28961 15.6458C7.31361 15.648 7.33761 15.6493 7.36129 15.6512C7.57217 15.6688 7.78465 15.68 8.00001 15.68C8.21537 15.68 8.42785 15.6688 8.63873 15.6512C8.66273 15.6493 8.68673 15.648 8.71041 15.6458C8.92001 15.6266 9.12673 15.5978 9.33089 15.5619C9.35073 15.5584 9.37025 15.5549 9.39009 15.5514C9.60161 15.5126 9.81025 15.4656 10.0154 15.4096C10.0234 15.4074 10.0314 15.4051 10.0394 15.4029C10.4733 15.2832 10.8925 15.1274 11.2922 14.937C11.2941 14.936 11.296 14.9354 11.2979 14.9344C11.4848 14.8451 11.6669 14.7472 11.8451 14.6438C11.8726 14.6278 11.9002 14.6128 11.9274 14.5965C12.0902 14.4992 12.2486 14.3952 12.4032 14.2867C12.4429 14.2589 12.4826 14.231 12.5219 14.2022C12.6678 14.0954 12.8099 13.9837 12.9478 13.8672C12.9677 13.8506 12.9891 13.8365 13.0086 13.8195L13.12 13.7235V13.7181C14.6899 12.3107 15.68 10.2691 15.68 8.00001C15.68 3.76545 12.2346 0.320007 8.00001 0.320007ZM8.00001 8.00001C6.58849 8.00001 5.44001 6.85153 5.44001 5.44001C5.44001 4.02849 6.58849 2.88001 8.00001 2.88001C9.41153 2.88001 10.56 4.02849 10.56 5.44001C10.56 6.85153 9.41153 8.00001 8.00001 8.00001ZM8.96001 8.64001C10.9008 8.64001 12.48 10.2192 12.48 12.16V13.4266C12.4666 13.4378 12.4525 13.448 12.439 13.4592C12.3126 13.5619 12.183 13.6595 12.0506 13.753C12.0211 13.7738 11.9923 13.7952 11.9629 13.8154C11.8198 13.913 11.673 14.0045 11.5235 14.0912C11.4963 14.1072 11.4688 14.1229 11.4413 14.1386C11.2845 14.2266 11.1248 14.3091 10.9619 14.3846C10.945 14.3926 10.9277 14.4003 10.9104 14.408C10.3789 14.6496 9.81889 14.8246 9.24257 14.9283C9.22433 14.9315 9.20609 14.935 9.18785 14.9382C9.00641 14.9693 8.82337 14.9933 8.63905 15.0102C8.61377 15.0125 8.58817 15.0141 8.56257 15.016C8.37601 15.0304 8.18849 15.04 8.00001 15.04C7.81153 15.04 7.62401 15.0304 7.43745 15.0154C7.41217 15.0134 7.38657 15.0118 7.36097 15.0096C7.17665 14.9926 6.99361 14.969 6.81217 14.9376C6.79393 14.9344 6.77569 14.9312 6.75745 14.9277C6.18113 14.824 5.62113 14.649 5.08961 14.4074C5.07233 14.3994 5.05505 14.392 5.03809 14.384C4.87521 14.3085 4.71553 14.2259 4.55873 14.1379C4.53121 14.1222 4.50401 14.1066 4.47649 14.0906C4.32705 14.0042 4.18017 13.9123 4.03713 13.8147C4.00737 13.7946 3.97857 13.7731 3.94945 13.7523C3.81697 13.6589 3.68737 13.5616 3.56097 13.4586C3.54753 13.4477 3.53345 13.4371 3.52001 13.4259V12.16C3.52001 10.2192 5.09921 8.64001 7.04001 8.64001H8.96001ZM13.12 12.8243V12.16C13.12 10.1533 11.6915 8.47393 9.79841 8.08481C10.6435 7.50849 11.2 6.53793 11.2 5.44001C11.2 3.67553 9.76449 2.24001 8.00001 2.24001C6.23553 2.24001 4.80001 3.67553 4.80001 5.44001C4.80001 6.53793 5.35649 7.50849 6.20161 8.08481C4.30849 8.47393 2.88001 10.1533 2.88001 12.16V12.8243C1.69089 11.5632 0.960007 9.86593 0.960007 8.00001C0.960007 4.11809 4.11809 0.960007 8.00001 0.960007C11.8819 0.960007 15.04 4.11809 15.04 8.00001C15.04 9.86593 14.3091 11.5632 13.12 12.8243Z" fill="#EDEDED"/>
</svg>
