<svg width="25" height="25" viewBox="0 0 21 21" fill="none" xmlns="http://www.w3.org/2000/svg">
<path d="M16.9509 4.97109C16.5168 4.54429 15.998 4.2132 15.428 3.99918C14.858 3.78516 14.2495 3.69295 13.6417 3.72851C13.034 3.76406 12.4404 3.92658 11.8992 4.20559C11.3581 4.48461 10.8815 4.87392 10.5 5.34844C10.1185 4.87392 9.64189 4.48461 9.10076 4.20559C8.55963 3.92658 7.96604 3.76406 7.35825 3.72851C6.75047 3.69295 6.14197 3.78516 5.572 3.99918C5.00203 4.2132 4.48324 4.54429 4.04906 4.97109C3.24558 5.77686 2.79437 6.86834 2.79437 8.00625C2.79437 9.14416 3.24558 10.2356 4.04906 11.0414L10.1522 17.1413C10.1977 17.1873 10.2518 17.2238 10.3115 17.2488C10.3712 17.2737 10.4353 17.2866 10.5 17.2866C10.5647 17.2866 10.6288 17.2737 10.6885 17.2488C10.7482 17.2238 10.8023 17.1873 10.8478 17.1413L16.9509 11.0414C17.7504 10.2335 18.1989 9.14285 18.1989 8.00625C18.1989 6.86965 17.7504 5.77896 16.9509 4.97109Z" fill="#EDEDED"/>
</svg>
