<svg width="24" height="24" viewBox="0 0 16 16" fill="none" xmlns="http://www.w3.org/2000/svg">
<path d="M6.40001 11.9938C7.76435 11.9938 9.00466 11.5101 9.97211 10.6915L14.3132 15.0326C14.4124 15.1318 14.5364 15.1814 14.6729 15.1814C14.8093 15.1814 14.9333 15.1318 15.0326 15.0326C15.231 14.8341 15.231 14.5116 15.0326 14.3132L10.6915 9.97211C11.4977 9.00466 11.9938 7.75195 11.9938 6.40001C11.9938 3.31164 9.48838 0.806213 6.40001 0.806213C3.32404 0.806213 0.806213 3.32404 0.806213 6.40001C0.806213 9.48838 3.32404 11.9938 6.40001 11.9938ZM6.40001 1.82327C8.93024 1.82327 10.9768 3.88218 10.9768 6.40001C10.9768 8.93024 8.93024 10.9768 6.40001 10.9768C3.86978 10.9768 1.82327 8.91784 1.82327 6.40001C1.82327 3.88218 3.88218 1.82327 6.40001 1.82327Z" fill="#EDEDED"/>
</svg>
