<svg width="23" height="23" viewBox="0 0 23 23" fill="none" xmlns="http://www.w3.org/2000/svg">
<path d="M21.1367 2.58579C20.4884 1.88545 19.7138 1.34218 18.8628 0.99099C18.0118 0.639803 17.1033 0.488502 16.1959 0.546839C15.2884 0.605177 14.4021 0.871858 13.5942 1.32969C12.7862 1.78752 12.0746 2.42635 11.505 3.20497C10.9355 2.42635 10.2238 1.78752 9.41586 1.32969C8.60792 0.871858 7.72165 0.605177 6.81418 0.546839C5.90671 0.488502 4.99819 0.639803 4.14719 0.99099C3.29618 1.34218 2.52159 1.88545 1.87334 2.58579C0.673677 3.90796 0 5.69897 0 7.56616C0 9.43335 0.673677 11.2244 1.87334 12.5465L10.9857 22.5557C11.0536 22.6313 11.1345 22.6912 11.2236 22.7322C11.3128 22.7731 11.4084 22.7942 11.505 22.7942C11.6016 22.7942 11.6973 22.7731 11.7864 22.7322C11.8756 22.6912 11.9564 22.6313 12.0243 22.5557L21.1367 12.5465C22.3304 11.2209 23 9.4312 23 7.56616C23 5.70112 22.3304 3.91141 21.1367 2.58579Z" fill="black"/>
</svg>
